PathFileType	4	(X/Y/Z)	C:\Users\Basilio\Documents\Thesis Gigler\squatting_fais\c3dfiles\058\SJ_pre1\markers_experimental.trc
DataRate	CameraRate	NumFrames	NumMarkers	Units	OrigDataRate	OrigDataStartFrame	OrigNumFrames
200.000000	200.000000	4	61	mm	200.000000	1376	1573
Frame#	Time	FHD			LBHD			RBHD			C7			T10			CLAV			LSHO			LUUPA			LMUPA			LDUPA			LLEP			LMEP			LRAD			LUL			LRFIN			RSHO			RUPA1			RMUPA			RDUPA			RLEP			RMEP			RRAD			RUL			RUFIN			LASI			RASI			USACR			LSACR			RSACR			LTHI1			LTHI2			LTHI3			LTHI4			LLFC			LMFC			LTIB1			LTIB2			LTIB3			LTIB4			LLMAL			LMMAL			LHEE			LMT1			LMT2			LMT5			RTHI			RTHI2			RTHI3			RTHI4			RLFC			RMFC			RTIB1			RTIB2			RTIB3			RTIB4			RLMAL			RMMAL			RHEE			RMT1			RMT2			RMT5			
		X1	Y1	Z1	X2	Y2	Z2	X3	Y3	Z3	X4	Y4	Z4	X5	Y5	Z5	X6	Y6	Z6	X7	Y7	Z7	X8	Y8	Z8	X9	Y9	Z9	X10	Y10	Z10	X11	Y11	Z11	X12	Y12	Z12	X13	Y13	Z13	X14	Y14	Z14	X15	Y15	Z15	X16	Y16	Z16	X17	Y17	Z17	X18	Y18	Z18	X19	Y19	Z19	X20	Y20	Z20	X21	Y21	Z21	X22	Y22	Z22	X23	Y23	Z23	X24	Y24	Z24	X25	Y25	Z25	X26	Y26	Z26	X27	Y27	Z27	X28	Y28	Z28	X29	Y29	Z29	X30	Y30	Z30	X31	Y31	Z31	X32	Y32	Z32	X33	Y33	Z33	X34	Y34	Z34	X35	Y35	Z35	X36	Y36	Z36	X37	Y37	Z37	X38	Y38	Z38	X39	Y39	Z39	X40	Y40	Z40	X41	Y41	Z41	X42	Y42	Z42	X43	Y43	Z43	X44	Y44	Z44	X45	Y45	Z45	X46	Y46	Z46	X47	Y47	Z47	X48	Y48	Z48	X49	Y49	Z49	X50	Y50	Z50	X51	Y51	Z51	X52	Y52	Z52	X53	Y53	Z53	X54	Y54	Z54	X55	Y55	Z55	X56	Y56	Z56	X57	Y57	Z57	X58	Y58	Z58	X59	Y59	Z59	X60	Y60	Z60	X61	Y61	Z61	

1377	6.88	-87.12783050537111	1773.145263671875	-796.2596435546877	-242.8182220458985	1706.977416992188	-859.9476318359377	-84.9315643310547	1780.355102539063	-939.0084228515627	-255.9344635009766	1572.570434570313	-879.967712402344	-283.7030639648438	1259.592407226563	-867.8111572265627	-96.44725036621097	1513.481689453125	-862.315368652344	-106.9083709716797	1570.062866210938	-1035.481079101563	-254.8147888183594	1472.501831054688	-1190.147216796875	-229.2228393554688	1431.081176757813	-1202.930297851563	-283.9579467773438	1420.119140625	-1228.024780273438	-320.7845153808594	1348.574584960938	-1261.811279296875	-372.8038024902344	1344.315307617188	-1205.981323242188	-258.3192138671876	1158.5888671875	-1068.684448242188	-240.1600341796876	1106.649169921875	-1128.535522460938	-184.1287078857422	1153.69970703125	-1051.782836914063	-134.2258911132813	1584.084228515625	-692.5233154296876	-280.4967651367188	1474.8466796875	-543.3093261718751	-252.6769561767579	1432.942993164063	-538.4626464843751	-300.5750122070313	1417.321166992188	-506.6262207031251	-336.2783508300782	1361.562744140625	-477.567596435547	-395.0814819335939	1342.134643554688	-542.5532836914064	-256.9887390136719	1164.044067382813	-645.5919189453126	-231.3883819580079	1123.397216796875	-579.8504638671876	-180.4356689453125	1144.687377929688	-666.5847167968751	-120.2333450317383	1036.779296875	-975.626647949219	-126.8711547851563	1041.59814453125	-739.3062744140626	-303.8629455566407	1143.507202148438	-857.6607055664065	-313.8300476074219	1112.693237304688	-885.0861816406252	-313.8095703125001	1112.244140625	-827.4682617187502	-200.2532196044922	770.1544189453127	-1081.1064453125	-174.6137847900391	689.0254516601564	-1088.075439453125	-127.4530181884766	687.2949829101564	-1070.519775390625	-204.8491973876954	638.1934814453126	-1078.804443359375	-210.2701568603516	538.1715698242189	-1077.328369140625	-161.8561401367188	515.6924438476564	-964.1713867187502	-169.4157409667969	395.4886779785157	-1068.139404296875	-239.6864166259766	373.1284179687501	-1110.354370117188	-199.3517150878907	356.8949584960938	-1098.703491210938	-205.9480133056641	273.9334106445313	-1079.985717773438	-304.3998107910157	91.26206207275392	-1087.637084960938	-250.6078796386719	95.14553070068361	-1008.899291992188	-348.5280456542969	50.6862144470215	-1020.426879882813	-135.245101928711	60.46237182617189	-1092.1376953125	-150.331771850586	61.67130661010744	-1137.184204101563	-215.1274719238282	38.40698242187501	-1169.561157226563	-247.7296752929688	848.3610839843752	-654.3060302734376	-209.6606445312501	795.7026367187502	-639.5745239257814	-176.307373046875	796.4235839843752	-639.0620117187501	-231.4072265625001	714.7927856445314	-652.3408203125001	-222.4800262451172	536.9003295898439	-647.5205688476564	-162.8388977050782	507.9114685058595	-765.3918457031251	-169.9424438476563	321.3107299804688	-693.1103515625001	-225.2742309570313	256.0969238281251	-626.7771606445314	-186.7703857421875	244.2533874511719	-651.6033325195314	-190.8735809326172	195.6141510009766	-679.4352416992189	-265.6840209960938	94.75375366210939	-640.1255493164064	-213.3558807373047	103.9624252319336	-719.6971435546876	-310.5138244628907	49.54005813598634	-712.4857788085939	-101.3706970214844	55.7587127685547	-647.0415039062501	-116.8240661621094	61.67454147338869	-597.0009765625001	-175.0105438232422	29.28274536132813	-559.7368774414064	
1378	6.885	-86.90749359130861	1773.245483398438	-796.4769287109377	-242.8103637695313	1707.034545898438	-860.0157470703127	-84.82347869873048	1780.320434570313	-939.2650146484377	-255.9943389892579	1572.573486328125	-879.9633789062502	-283.6971740722657	1259.59033203125	-867.8485107421877	-96.5705490112305	1513.47705078125	-862.3713378906252	-106.9167022705078	1570.003540039063	-1035.522094726563	-254.8820190429688	1472.410034179688	-1190.195922851563	-229.2259674072266	1430.949462890625	-1202.9482421875	-283.9674377441407	1420.083251953125	-1228.0478515625	-320.8923339843751	1348.480834960938	-1261.838989257813	-372.8875732421876	1344.282104492188	-1205.978393554688	-258.3307495117188	1158.55322265625	-1068.746704101563	-240.2032775878907	1106.629150390625	-1128.583129882813	-184.0244445800782	1153.679809570313	-1051.835327148438	-134.2841033935547	1584.154174804688	-692.6026611328126	-280.6004638671876	1474.938720703125	-543.3217773437501	-252.7427062988282	1433.083862304688	-538.4563598632814	-300.5445861816407	1417.414794921875	-506.6251220703126	-336.3500671386719	1361.747924804688	-477.5453491210939	-395.1451721191407	1342.231811523438	-542.5551757812501	-256.9841308593751	1164.126953125	-645.5905151367189	-231.3576049804688	1123.508911132813	-579.8462524414064	-180.4798431396485	1144.8125	-666.6173095703126	-120.2017669677735	1036.816284179688	-975.6838378906252	-126.4923095703125	1041.671020507813	-739.4181518554689	-303.8076171875001	1143.51806640625	-857.6589355468752	-313.7763671875001	1112.7548828125	-885.1177978515627	-313.6967468261719	1112.377319335938	-827.498962402344	-200.2922973632813	770.2176513671877	-1081.1259765625	-174.634521484375	689.0931396484376	-1088.099731445313	-127.5408554077149	687.3090209960939	-1070.596069335938	-204.9744262695313	638.2673339843751	-1078.81982421875	-210.3637237548829	538.2380371093751	-1077.30810546875	-162.0571441650391	515.7219848632814	-964.2043457031252	-169.7111206054688	395.4373474121095	-1068.185668945313	-239.8179016113282	373.1692504882813	-1110.300903320313	-199.4968414306641	356.9302062988282	-1098.700561523438	-205.9656219482422	273.9995727539063	-1080.008666992188	-304.4446716308594	91.30725860595705	-1087.598022460938	-250.5793609619141	95.11651611328126	-1008.907897949219	-348.5607604980469	50.63818359375001	-1020.403686523438	-135.2935485839844	60.45018768310548	-1092.11279296875	-150.3391265869141	61.67987060546876	-1137.1806640625	-215.1984252929688	38.38854217529298	-1169.621826171875	-247.5874176025391	848.5894165039065	-654.3449096679689	-209.5941619873047	795.6887207031252	-639.6287231445314	-176.1926879882813	796.454284667969	-639.1057739257814	-231.5034637451172	714.8927612304689	-652.3570556640626	-222.5890502929688	537.0231323242189	-647.5518798828126	-162.9583740234375	508.0170898437501	-765.4432983398439	-169.985595703125	321.3829040527344	-693.0883789062501	-225.3321380615235	256.1004333496094	-626.8231201171876	-186.9553833007813	244.3331451416016	-651.5423583984376	-190.8853607177735	195.6009674072266	-679.4238281250001	-265.7069702148438	94.74413299560548	-640.1495971679689	-213.3717498779297	103.9556427001953	-719.7022094726564	-310.5022888183594	49.53697204589845	-712.4702148437501	-101.2596969604492	55.70435714721681	-647.0324096679689	-116.8328475952149	61.68193817138673	-597.0168457031251	-175.0188598632813	29.26407623291016	-559.7213134765626	
1379	6.890000000000001	-86.68725585937501	1773.380493164063	-796.7609863281252	-242.8645019531251	1707.180786132813	-860.1246337890627	-84.92036437988283	1780.230834960938	-939.4912719726565	-255.9494171142579	1572.713989257813	-880.038269042969	-283.6804809570313	1259.56396484375	-867.8748168945315	-96.77810668945315	1513.571899414063	-862.3394775390627	-106.9096069335938	1569.935668945313	-1035.602783203125	-254.8143615722657	1472.291625976563	-1190.28857421875	-229.268051147461	1430.885620117188	-1203.0205078125	-283.9691467285157	1420.053344726563	-1228.05908203125	-321.0057983398438	1348.423950195313	-1261.85888671875	-372.8908691406251	1344.279907226563	-1206.057861328125	-258.2984313964844	1158.54443359375	-1068.783569335938	-240.2094268798829	1106.54541015625	-1128.586181640625	-184.1274108886719	1153.660278320313	-1051.887573242188	-134.3855133056641	1584.250732421875	-692.6339111328126	-280.6576843261719	1475.078491210938	-543.3221435546876	-252.7575225830079	1433.2822265625	-538.3928833007814	-300.7056274414063	1417.502807617188	-506.6595764160157	-336.3792114257813	1361.8330078125	-477.5999755859376	-395.1479492187501	1342.351684570313	-542.5674438476564	-256.8462829589844	1164.248901367188	-645.5908813476564	-231.3531341552735	1123.593017578125	-579.8424682617189	-180.4867095947266	1144.932373046875	-666.6076049804689	-120.097526550293	1036.848388671875	-975.7385253906252	-126.4390640258789	1041.726806640625	-739.4801025390626	-303.7919311523438	1143.578247070313	-857.6840820312502	-313.6847229003907	1112.778442382813	-885.1275024414065	-313.6234130859376	1112.411987304688	-827.5061645507815	-200.3941345214844	770.2888793945315	-1081.178833007813	-174.7935638427735	689.1704711914064	-1088.116577148438	-127.6517791748047	687.3483276367189	-1070.652954101563	-205.1079101562501	638.3285522460939	-1078.776000976563	-210.5237579345704	538.2802734375001	-1077.2705078125	-162.1901092529297	515.7534790039064	-964.1492919921877	-169.7767028808594	395.4928588867189	-1068.169555664063	-239.9669036865235	373.2369995117188	-1110.279174804688	-199.6340789794922	356.9620361328126	-1098.674560546875	-205.9925231933594	274.0260925292969	-1079.921020507813	-304.4005432128907	91.33005523681642	-1087.662231445313	-250.6206054687501	95.1419143676758	-1008.893310546875	-348.5486450195313	50.62939071655275	-1020.433349609375	-135.2894134521485	60.50839614868165	-1092.12646484375	-150.3834686279297	61.67019653320314	-1137.210815429688	-215.1632690429688	38.37412643432618	-1169.634521484375	-247.5532836914063	848.567565917969	-654.3590087890626	-209.5394439697266	795.769958496094	-639.6711425781251	-176.1721496582032	796.4755859375002	-639.1851196289064	-231.4925231933594	714.9861450195314	-652.3859863281251	-222.6670532226563	537.1431274414064	-647.6284790039064	-163.2271575927735	508.0179748535157	-765.5160522460939	-170.0328826904297	321.3834533691407	-693.1365356445314	-225.4093780517579	256.1315307617188	-626.8635253906251	-187.0975341796875	244.3263549804688	-651.5511474609376	-191.1560821533203	195.6161193847657	-679.4664916992189	-265.7531127929688	94.7757034301758	-640.1224975585939	-213.3051757812501	103.9846649169922	-719.6757812500001	-310.5124816894532	49.49172592163087	-712.5073242187501	-101.3131637573242	55.77852249145509	-647.0410156250001	-116.834701538086	61.66503906250001	-597.0050659179689	-175.0422058105469	29.21659088134766	-559.7176513671876	
1380	6.895	-86.61623382568361	1773.309936523438	-796.963562011719	-242.8803253173829	1707.301391601563	-860.2634887695315	-84.89139556884767	1780.209228515625	-939.649353027344	-256.0317687988282	1572.678100585938	-880.0550537109377	-283.6722412109376	1259.610229492188	-867.908874511719	-96.90674591064456	1513.533203125	-862.407897949219	-106.9398345947266	1569.922485351563	-1035.608764648438	-253.8660278320313	1472.646362304688	-1190.5009765625	-229.3333892822266	1430.786743164063	-1203.020385742188	-284.0973510742188	1420.014526367188	-1228.12548828125	-321.0512695312501	1348.366088867188	-1261.937377929688	-372.9162597656251	1344.214477539063	-1206.096801757813	-258.3127441406251	1158.506469726563	-1068.8134765625	-240.2032012939454	1106.505493164063	-1128.622680664063	-184.0681610107422	1153.644653320313	-1051.941772460938	-134.6376342773438	1584.24853515625	-692.7080688476564	-280.7035522460938	1475.137329101563	-543.3499755859376	-252.8901672363282	1433.276733398438	-538.3922119140626	-300.7755432128907	1417.553588867188	-506.6582946777345	-336.4618225097657	1361.875854492188	-477.6854858398439	-395.1372375488282	1342.39013671875	-542.5785522460939	-256.7977600097657	1164.22705078125	-645.5454101562501	-231.2738037109376	1123.7392578125	-579.8492431640626	-180.4515380859375	1145.162231445313	-666.6647338867189	-120.0504837036133	1036.884155273438	-975.7934570312502	-126.3874435424805	1041.759765625	-739.4927368164064	-303.6380004882813	1143.627197265625	-857.7506103515627	-313.6578063964844	1112.890991210938	-885.1424560546877	-313.5709533691407	1112.453125	-827.5450439453127	-200.3576354980469	770.3018188476565	-1081.175048828125	-174.8508605957032	689.1812133789064	-1088.130981445313	-127.7744827270508	687.3122558593751	-1070.629028320313	-205.2320404052735	638.4017944335939	-1078.737182617188	-210.7915344238282	538.3196411132814	-1077.226684570313	-162.4189147949219	515.8063354492189	-964.094665527344	-169.8326568603516	395.5135498046876	-1068.140014648438	-240.0773010253907	373.2907104492188	-1110.26708984375	-199.7805786132813	357.0566101074219	-1098.641845703125	-206.0538940429688	274.1388854980469	-1079.975830078125	-304.5545043945313	91.24246215820314	-1087.5791015625	-250.6961212158204	95.19811248779298	-1008.888671875	-348.5620422363282	50.64967346191408	-1020.412231445313	-135.2778778076172	60.44000244140626	-1092.175903320313	-150.4030303955078	61.63788223266603	-1137.2060546875	-215.1901092529297	38.28749084472657	-1169.663696289063	-247.5389862060547	848.6377563476565	-654.3627929687501	-209.4281463623047	795.8247070312502	-639.7103271484376	-176.1048126220703	796.4968261718752	-639.2256469726564	-231.5345611572266	715.0539550781251	-652.4118652343751	-223.0105743408204	537.1943359375001	-647.6664428710939	-163.3968048095703	508.0712890625001	-765.6254882812501	-170.0755310058594	321.3971252441407	-693.1600341796876	-225.6398620605469	256.2512817382813	-626.8403930664064	-187.1034393310547	244.3556213378907	-651.5505371093751	-191.2276916503907	195.6725006103516	-679.5048828125001	-265.7564697265626	94.77359008789064	-640.1271362304689	-213.316879272461	103.9747467041016	-719.6803588867189	-310.5033874511719	49.50420379638673	-712.4688720703126	-101.3208999633789	55.69563674926759	-647.0321044921876	-116.819320678711	61.65579223632814	-596.9641113281251	-175.0338592529297	29.23244285583497	-559.7376098632814	
